<svg width="18" height="20" viewBox="0 0 18 20" fill="none" xmlns="http://www.w3.org/2000/svg">
<path d="M13.125 5.1875H15.941C16.1113 5.18767 16.2755 5.25105 16.4018 5.36536C16.528 5.47968 16.6074 5.63679 16.6244 5.80625L17.0438 10H15.6605L15.3168 6.5625H13.125V8.625C13.125 8.80734 13.0526 8.9822 12.9237 9.11114C12.7947 9.24007 12.6199 9.3125 12.4375 9.3125C12.2552 9.3125 12.0803 9.24007 11.9514 9.11114C11.8225 8.9822 11.75 8.80734 11.75 8.625V6.5625H6.25003V8.625C6.25003 8.80734 6.17759 8.9822 6.04866 9.11114C5.91973 9.24007 5.74486 9.3125 5.56253 9.3125C5.38019 9.3125 5.20532 9.24007 5.07639 9.11114C4.94746 8.9822 4.87503 8.80734 4.87503 8.625V6.5625H2.6819L1.5819 17.5625H9.00003V18.9375H0.821526C0.725501 18.9374 0.630561 18.9172 0.542823 18.8782C0.455084 18.8392 0.376494 18.7822 0.312113 18.7109C0.247733 18.6397 0.198992 18.5557 0.16903 18.4645C0.139067 18.3733 0.128548 18.2768 0.138151 18.1812L1.37565 5.80625C1.39268 5.63679 1.47201 5.47968 1.59826 5.36536C1.72452 5.25105 1.88871 5.18767 2.05903 5.1875H4.87503V4.70762C4.87503 2.32338 6.71203 0.375 9.00003 0.375C11.288 0.375 13.125 2.32338 13.125 4.70762V5.18887V5.1875ZM11.75 5.1875V4.70762C11.75 3.06588 10.5098 1.75 9.00003 1.75C7.49028 1.75 6.25003 3.06588 6.25003 4.70762V5.18887H11.75V5.1875ZM16.0772 15.5825L14.5 14.0067V18.9375C14.5 19.1198 14.4276 19.2947 14.2987 19.4236C14.1697 19.5526 13.9949 19.625 13.8125 19.625C13.6302 19.625 13.4553 19.5526 13.3264 19.4236C13.1975 19.2947 13.125 19.1198 13.125 18.9375V14.0067L11.5493 15.5825C11.4859 15.6482 11.41 15.7005 11.3261 15.7366C11.2422 15.7726 11.152 15.7916 11.0607 15.7924C10.9695 15.7932 10.8789 15.7758 10.7944 15.7412C10.7099 15.7066 10.6332 15.6556 10.5686 15.591C10.5041 15.5265 10.453 15.4497 10.4185 15.3652C10.3839 15.2807 10.3665 15.1902 10.3673 15.0989C10.3681 15.0076 10.387 14.9174 10.4231 14.8335C10.4591 14.7497 10.5115 14.6738 10.5772 14.6104L13.3272 11.8604C13.4561 11.7315 13.6309 11.6591 13.8132 11.6591C13.9955 11.6591 14.1704 11.7315 14.2993 11.8604L17.0493 14.6104C17.1149 14.6738 17.1673 14.7497 17.2033 14.8335C17.2394 14.9174 17.2583 15.0076 17.2591 15.0989C17.2599 15.1902 17.2425 15.2807 17.208 15.3652C17.1734 15.4497 17.1223 15.5265 17.0578 15.591C16.9932 15.6556 16.9165 15.7066 16.832 15.7412C16.7475 15.7758 16.657 15.7932 16.5657 15.7924C16.4744 15.7916 16.3842 15.7726 16.3003 15.7366C16.2164 15.7005 16.1406 15.6482 16.0772 15.5825Z" fill="white"/>
</svg>
