<svg width="35" height="29" viewBox="0 0 35 29" fill="none" xmlns="http://www.w3.org/2000/svg">
<path d="M3.5679 14.6914C1.88848 14.6914 0.514404 13.3173 0.514404 11.6379V4.00412C0.514404 2.3247 1.88848 0.950623 3.5679 0.950623H15.7819C17.4613 0.950623 18.8354 2.3247 18.8354 4.00412V11.6379C18.8354 13.3173 17.4613 14.6914 15.7819 14.6914H12.7284V19.2716L8.14815 14.6914H3.5679ZM31.0494 23.8519C32.7288 23.8519 34.1029 22.4778 34.1029 20.7984V13.1646C34.1029 11.4852 32.7288 10.1111 31.0494 10.1111H21.8889V11.6379C21.8889 14.9967 19.1407 17.7449 15.7819 17.7449V20.7984C15.7819 22.4778 17.156 23.8519 18.8354 23.8519H21.8889V28.4321L26.4691 23.8519H31.0494Z" fill="#1B85F3"/>
</svg>
